<svg preserveAspectRatio="none" width="100%" height="100%" overflow="visible" style="display: block;" viewBox="0 0 30 30" fill="none" xmlns="http://www.w3.org/2000/svg">
<g id="Frame 427319046">
<rect width="30" height="30" rx="15" fill="var(--fill-0, #393939)"/>
<path id="Vector" d="M15.6765 8.22532C15.5322 8.08105 15.3365 8 15.1324 8C14.9284 8 14.7327 8.08105 14.5884 8.22532L10.2349 12.5787C10.1614 12.6497 10.1028 12.7346 10.0625 12.8285C10.0221 12.9224 10.0009 13.0234 10 13.1256C9.99914 13.2278 10.0186 13.3291 10.0573 13.4237C10.096 13.5183 10.1531 13.6042 10.2254 13.6764C10.2977 13.7487 10.3836 13.8058 10.4782 13.8445C10.5727 13.8832 10.6741 13.9027 10.7762 13.9018C10.8784 13.9009 10.9794 13.8797 11.0733 13.8394C11.1672 13.799 11.2521 13.7404 11.3231 13.6669L14.3629 10.6271V20.8184C14.3629 21.0225 14.444 21.2183 14.5883 21.3626C14.7326 21.5069 14.9283 21.588 15.1324 21.588C15.3365 21.588 15.5323 21.5069 15.6766 21.3626C15.8209 21.2183 15.902 21.0225 15.902 20.8184V10.6271L18.9418 13.6669C19.0869 13.8071 19.2813 13.8846 19.4831 13.8829C19.6849 13.8811 19.8779 13.8002 20.0206 13.6575C20.1632 13.5148 20.2442 13.3218 20.2459 13.12C20.2477 12.9183 20.1701 12.7239 20.0299 12.5787L15.6765 8.22532Z" fill="var(--fill-0, white)"/>
</g>
</svg>
